<svg version="1.1" id="Layer_1" xmlns="http://www.w3.org/2000/svg" xmlns:xlink="http://www.w3.org/1999/xlink" x="0px" y="0px"
	 width="100%" viewBox="0 0 1362 898" enable-background="new 0 0 1362 898" xml:space="preserve">
<path fill="#FFFFFF" opacity="1.000000" stroke="none" 
	d="
M1223.000000,899.000000 
	C815.378296,899.000000 408.256561,899.000000 1.067419,899.000000 
	C1.067419,599.744690 1.067419,300.489319 1.067419,1.116984 
	C454.999969,1.116984 909.000000,1.116984 1362.995850,1.116307 
	C1362.991699,300.410431 1362.991699,599.705200 1362.987549,899.000000 
	C1316.489014,899.000000 1269.994507,899.000000 1223.000000,899.000000 
M576.500427,423.000000 
	C595.919067,423.000000 615.337708,423.000000 634.677856,423.000000 
	C634.677856,425.710052 634.677856,427.635529 634.677856,430.181488 
	C612.991943,430.181488 591.616638,430.181488 569.946838,430.181488 
	C570.086853,432.419403 570.186340,434.009277 570.324097,436.210052 
	C581.361450,436.210052 592.075928,436.210052 602.652710,436.210052 
	C602.652710,438.770477 602.652710,440.689606 602.652710,443.057007 
	C598.387390,443.057007 594.452454,443.057007 590.095581,443.057007 
	C591.200745,449.869690 587.428223,450.361267 582.441345,450.079193 
	C576.498901,449.743073 570.522949,450.000000 564.348267,450.000000 
	C564.348267,451.855988 564.348267,453.223572 564.348267,455.047974 
	C574.921814,455.047974 585.181946,455.047974 595.660889,455.047974 
	C595.660889,457.552948 595.660889,459.596405 595.660889,461.755981 
	C593.728333,461.936768 592.117615,462.087463 590.127930,462.273590 
	C591.205139,468.866058 587.434265,469.468750 582.442810,469.064117 
	C578.505798,468.744965 574.522217,469.000000 570.351379,469.000000 
	C570.351379,471.199280 570.351379,472.900177 570.351379,475.000000 
	C576.988525,475.000000 583.298889,474.811493 589.590942,475.069580 
	C593.463928,475.228424 595.337158,474.394531 596.276123,470.044037 
	C597.745850,463.234650 602.364929,458.315216 609.117126,456.136292 
	C616.476135,453.761566 623.412598,455.195984 628.434814,461.160126 
	C631.700562,465.038330 633.798401,469.900085 636.657104,474.722137 
	C652.386536,474.722137 668.988892,474.722137 685.544189,474.722137 
	C687.450012,462.873474 693.273376,456.145966 703.526794,455.252014 
	C707.192505,454.932434 711.251099,456.544342 714.803955,458.046600 
	C722.069214,461.118591 723.860596,468.198273 725.569336,474.582214 
	C731.968811,474.582214 737.876648,474.582214 743.723755,474.582214 
	C743.957092,472.225922 744.148926,470.288269 744.350403,468.253723 
	C746.253967,468.066345 747.861023,467.908112 749.660339,467.730988 
	C749.660339,461.780670 749.660339,456.060089 749.660339,450.252930 
	C747.718872,450.068481 746.106262,449.915283 744.064941,449.721375 
	C745.453613,442.822479 741.148682,441.509644 735.942322,440.834412 
	C733.857056,440.563965 731.850891,439.647980 729.821716,438.986084 
	C720.317627,435.886047 710.293457,433.821991 701.447693,429.401428 
	C690.015991,423.688568 679.468018,416.181610 668.655823,409.265350 
	C662.786865,405.511169 656.776123,403.646301 649.585693,403.840149 
	C631.605225,404.324829 613.603027,404.000000 595.609497,404.000000 
	C593.841797,404.000000 592.074158,404.000000 589.986938,404.000000 
	C590.088867,406.322296 590.158875,407.917633 590.255676,410.122314 
	C602.944763,410.122314 615.336121,410.122314 627.697510,410.122314 
	C627.697510,412.675385 627.697510,414.600433 627.697510,417.138367 
	C604.022827,417.138367 580.638794,417.138367 556.961853,417.138367 
	C557.085876,419.368500 557.174561,420.964264 557.287720,423.000000 
	C563.573975,423.000000 569.537292,423.000000 576.500427,423.000000 
M615.430298,487.000000 
	C622.226990,486.819641 627.659302,481.639160 627.613953,475.380981 
	C627.563782,468.446289 621.360291,462.026611 614.865540,462.188171 
	C608.475037,462.347168 603.057190,467.863068 603.000000,474.268402 
	C602.924316,482.749237 606.598022,486.790039 615.430298,487.000000 
M700.187317,463.378235 
	C694.666992,466.197510 692.487122,470.855347 693.034180,476.837128 
	C693.666077,483.747162 700.701111,488.298248 708.455505,486.961731 
	C714.209717,485.969940 718.826416,478.496857 717.302856,472.640503 
	C715.272827,464.837524 709.726196,461.607208 700.187317,463.378235 
z"/>
<path fill="#B469FF" opacity="1.000000" stroke="none" 
	d="
M576.000488,423.000000 
	C569.537292,423.000000 563.573975,423.000000 557.287720,423.000000 
	C557.174561,420.964264 557.085876,419.368500 556.961853,417.138367 
	C580.638794,417.138367 604.022827,417.138367 627.697510,417.138367 
	C627.697510,414.600433 627.697510,412.675385 627.697510,410.122314 
	C615.336121,410.122314 602.944763,410.122314 590.255676,410.122314 
	C590.158875,407.917633 590.088867,406.322296 589.986938,404.000000 
	C592.074158,404.000000 593.841797,404.000000 595.609497,404.000000 
	C613.603027,404.000000 631.605225,404.324829 649.585693,403.840149 
	C656.776123,403.646301 662.786865,405.511169 668.655823,409.265350 
	C679.468018,416.181610 690.015991,423.688568 701.447693,429.401428 
	C710.293457,433.821991 720.317627,435.886047 729.821716,438.986084 
	C731.850891,439.647980 733.857056,440.563965 735.942322,440.834412 
	C741.148682,441.509644 745.453613,442.822479 744.064941,449.721375 
	C746.106262,449.915283 747.718872,450.068481 749.660339,450.252930 
	C749.660339,456.060089 749.660339,461.780670 749.660339,467.730988 
	C747.861023,467.908112 746.253967,468.066345 744.350403,468.253723 
	C744.148926,470.288269 743.957092,472.225922 743.723755,474.582214 
	C737.876648,474.582214 731.968811,474.582214 725.569336,474.582214 
	C723.860596,468.198273 722.069214,461.118591 714.803955,458.046600 
	C711.251099,456.544342 707.192505,454.932434 703.526794,455.252014 
	C693.273376,456.145966 687.450012,462.873474 685.544189,474.722137 
	C668.988892,474.722137 652.386536,474.722137 636.657104,474.722137 
	C633.798401,469.900085 631.700562,465.038330 628.434814,461.160126 
	C623.412598,455.195984 616.476135,453.761566 609.117126,456.136292 
	C602.364929,458.315216 597.745850,463.234650 596.276123,470.044037 
	C595.337158,474.394531 593.463928,475.228424 589.590942,475.069580 
	C583.298889,474.811493 576.988525,475.000000 570.351379,475.000000 
	C570.351379,472.900177 570.351379,471.199280 570.351379,469.000000 
	C574.522217,469.000000 578.505798,468.744965 582.442810,469.064117 
	C587.434265,469.468750 591.205139,468.866058 590.127930,462.273590 
	C592.117615,462.087463 593.728333,461.936768 595.660889,461.755981 
	C595.660889,459.596405 595.660889,457.552948 595.660889,455.047974 
	C585.181946,455.047974 574.921814,455.047974 564.348267,455.047974 
	C564.348267,453.223572 564.348267,451.855988 564.348267,450.000000 
	C570.522949,450.000000 576.498901,449.743073 582.441345,450.079193 
	C587.428223,450.361267 591.200745,449.869690 590.095581,443.057007 
	C594.452454,443.057007 598.387390,443.057007 602.652710,443.057007 
	C602.652710,440.689606 602.652710,438.770477 602.652710,436.210052 
	C592.075928,436.210052 581.361450,436.210052 570.324097,436.210052 
	C570.186340,434.009277 570.086853,432.419403 569.946838,430.181488 
	C591.616638,430.181488 612.991943,430.181488 634.677856,430.181488 
	C634.677856,427.635529 634.677856,425.710052 634.677856,423.000000 
	C615.337708,423.000000 595.919067,423.000000 576.000488,423.000000 
z"/>
<path fill="#B469FF" opacity="1.000000" stroke="none" 
	d="
M615.002686,487.000000 
	C606.598022,486.790039 602.924316,482.749237 603.000000,474.268402 
	C603.057190,467.863068 608.475037,462.347168 614.865540,462.188171 
	C621.360291,462.026611 627.563782,468.446289 627.613953,475.380981 
	C627.659302,481.639160 622.226990,486.819641 615.002686,487.000000 
z"/>
<path fill="#B469FF" opacity="1.000000" stroke="none" 
	d="
M700.549133,463.236053 
	C709.726196,461.607208 715.272827,464.837524 717.302856,472.640503 
	C718.826416,478.496857 714.209717,485.969940 708.455505,486.961731 
	C700.701111,488.298248 693.666077,483.747162 693.034180,476.837128 
	C692.487122,470.855347 694.666992,466.197510 700.549133,463.236053 
z"/>
</svg>